{
.formatVersion = 3;
DisplayStrings = (
"thisntftophijmlfuvwyrbqdt\rgancezxskabqdgpy\rgpqygygyygefghijkl\rnininininiinonomnomini\riviviviwiwiwininijiji \rninja hatorififty forty toffee \rreferee fold freereverted \rretrograde renegadet\rrellisidioliekiopq \rkejriwal jokervvvvvv \rninininini",
x
);
axes = (
{
name = Weight;
tag = wght;
}
);
familyName = blackletter;
customParameters = (
{
name = glyphOrder;
value = (
.notdef,
n,
a,
o,
u,
m,
i,
j,
k,
l,
e,
f,
t,
r,
h,
v,
w,
y,
z,
c,
q,
b,
g,
p,
d,
s,
x,
CR
);
}
);
featurePrefixes = (
{
code = "#> languagesystem\nlanguagesystem DFLT dflt;\nlanguagesystem latn dflt;\n#< languagesystem\n";
tag = Languagesystems;
}
);
fontMaster = (
{
axesValues = (
400
);
customParameters = (
{
name = typoAscender;
value = 750;
},
{
name = typoDescender;
value = -250;
},
{
name = typoLineGap;
value = 100;
},
{
name = winAscent;
value = 750;
},
{
name = winDescent;
value = 250;
},
{
name = underlineThickness;
value = 50;
},
{
name = underlinePosition;
value = -100;
},
{
name = strikeoutPosition;
value = 300;
},
{
name = strikeoutSize;
value = 50;
},
{
name = subscriptXOffset;
value = 0;
},
{
name = subscriptXSize;
value = 650;
},
{
name = subscriptYOffset;
value = 75;
},
{
name = subscriptYSize;
value = 600;
},
{
name = superscriptXOffset;
value = 0;
},
{
name = superscriptXSize;
value = 650;
},
{
name = superscriptYOffset;
value = 350;
},
{
name = superscriptYSize;
value = 600;
},
{
name = hheaAscender;
value = 750;
},
{
name = hheaDescender;
value = -250;
},
{
name = hheaLineGap;
value = 100;
}
);
guides = (
{
position = "{0, 250}";
},
{
position = "{0, 250}";
}
);
id = "247F2779-B715-405B-B734-48E41FBA5128";
metricValues = (
{
pos = 750;
},
{
pos = 700;
},
{
pos = -250;
},
{
pos = 0;
},
{
pos = 500;
}
);
},
{
axesValues = (
700
);
customParameters = (
{
name = typoAscender;
value = 750;
},
{
name = typoDescender;
value = -250;
},
{
name = typoLineGap;
value = 100;
},
{
name = winAscent;
value = 750;
},
{
name = winDescent;

glyphs = (
{
glyphname = n;
layers = (
{
guides = (
{
position = "{0, 502}";
},
{
position = "{0, 149}";
}
);
layerId = "6858B54D-AE35-498A-808F-6622AE1D9032";
shapes = (
{
closed = 1;
nodes = (
(217.314,186.298,l),
(288.548,131.388,l),
(188.713,1.873,l),
(117.479,56.783,l)
);
},
{
closed = 1;
nodes = (
(461.054,185.399,l),
(532.288,130.489,l),
(432.453,0.974,l),
(361.219,55.884,l)
);
},
{
closed = 1;
nodes = (
(182.322,421.288,l),
(182.322,128.156,l),
(61.026,128.156,l),
(61.026,421.288,l)
);
},
{
closed = 1;
nodes = (
(75.666,389.716,l),
(257.759,512.36,l),
(460.297,378.942,l),
(393.575,277.646,l),
(258.505,366.614,l),
(143.422,289.109,l)
);
},
{
closed = 1;
nodes = (
(51.39,511.065,l),
(116.293,448.8,l),
(10.163,338.173,l),
(-54.74,400.438,l)
);
},
{
closed = 1;
nodes = (
(-12.44,406.61,l),
(70.44,493.39,l),
(159.44,408.39,l),
(76.56,321.61,l)
);
},
{
closed = 1;
nodes = (
(43.226,104.408,l),
(110.774,203.592,l),
(226.774,124.592,l),
(159.226,25.408,l)
);
},
{
closed = 1;
nodes = (
(286.226,104.408,l),
(353.774,203.592,l),
(469.774,124.592,l),
(402.226,25.408,l)
);
},
{
closed = 1;
nodes = (
(304.026,390.964,l),
(425.322,390.964,l),
(425.322,128.156,l),
(304.026,128.156,l)
);
}
);
width = 479;
},
{
layerId = "247F2779-B715-405B-B734-48E41FBA5128";
shapes = (
{
attr = {
strokeWidth = 56;
};
closed = 0;
nodes = (
(23,430,l),
(64,466,l),
(112,419,l),
(112,346,l),
(112,64,l),
(160,33,l),
(160,33,o),
(194,73,o),
(194,73,c)
);
},
{
attr = {
strokeWidth = 56;
};
closed = 0;
nodes = (
(336,385,l),
(336,64,l),
(384,33,l),
(418,73,l)
);
},
{
attr = {
strokeWidth = 56;
};
closed = 0;
nodes = (
(112,364,l),
(258,466,l),
(360,349,l)
);
},
{
attr = {
strokeWidth = 56;
};
closed = 0;
nodes = (
(86,80,l),
(121,58,l)
);
},
{
attr = {
strokeWidth = 56;
};
closed = 0;
nodes = (
(310,80,l),
(345,58,l)
);
},
{
attr = {
strokeWidth = 56;
};
closed = 0;
nodes = (
(96,435,l),
(106,424,o),
(130,402,o),
(140,391,c)
);
}
);
width = 448;
}
);
unicode = 110;
},
{
glyphname = a;
layers = (
{
layerId = "6858B54D-AE35-498A-808F-6622AE1D9032";
shapes = (
{
attr = {
strokeWidth = 110;
};
closed = 0;
nodes = (
(363,242,l),
(221,232,o),
(110,331,o),
(110,331,c),
(110,331,o),
(191,445,o),
(191,445,c),
(191,445,o),
(381,378,o),
(381,378,c),
(380,78,l)
);
},
{
attr = {
strokeWidth = 110;
};
closed = 0;
nodes = (
(267,261,l),
(115,208,l),
(115,89,l),
(199,53,l),
(367,114,l)
);
},
{
attr = {
strokeWidth = 110;
};
closed = 0;
nodes = (
(453,353,l),
(338,391,l)
);
},
{
closed = 1;
nodes = (
(465.24,154.34,l),
(541.687,106.956,l),
(474.231,-1.873,l),
(397.784,45.512,l)
);
},
{
closed = 1;
nodes = (
(306.668,96.962,l),
(356.684,182.323,l),
(471.809,114.867,l),
(421.792,29.506,l)
);
}
);
width = 500;
},
{
layerId = "247F2779-B715-405B-B734-48E41FBA5128";
shapes = (
{
attr = {
strokeWidth = 56;
};
closed = 0;
nodes = (
(290,233,l),
(172,270,o),
(143,299,o),
(84,367,c),
(171,471,l),
(171,471,o),
(267,416,o),
(298,399,cs),
(304,396,o),
(308,394,o),
(308,394,c),
(308,64,l),
(356,33,l),
(390,73,l)
);
},
{
attr = {
strokeWidth = 56;
};
closed = 0;
nodes = (
(180,268,l),
(84,203,l),
(84,75,l),
(163,28,l),
(298,89,l)
);
},
{
attr = {
strokeWidth = 56;
};
closed = 0;
nodes = (
(347,374,l),
(274,412,l)
);
}
);
width = 420;
}
);
unicode = 97;
},
{
glyphname = o;
layers = (
{
guides = (
{
angle = 90;
position = "{223, 0}";
},
{
angle = 90;
position = "{235, 0}";
}
);
layerId = "6858B54D-AE35-498A-808F-6622AE1D9032";
shapes = (
{
attr = {
strokeWidth = 120;
};
closed = 0;
nodes = (
(66,126,l),
(254,61,l),
(361,124,l),
(361,390,l),
(247,443,l),
(119,376,l),
(119,105,l)
);
},
{
attr = {
strokeWidth = 120;
};
closed = 0;
nodes = (
(369,387,l),
(418,363,l)
);
}
);
width = 480;
},
{
guides = (
{
angle = 90;
position = "{210, 0}";
},
{
angle = 90;
position = "{220, 0}";
}
);
layerId = "247F2779-B715-405B-B734-48E41FBA5128";
shapes = (
{
attr = {
strokeWidth = 56;
};
closed = 0;
nodes = (
(57,107,l),
(210,29,l),
(321,107,l),
(321,406,l),
(220,472,l),
(97,391,l),
(97,82,l)
);
},
{
attr = {
strokeWidth = 56;
};
closed = 0;
nodes = (
(321,406,l),
(362,379,l)
);
}
);
width = 420;
}
);
unicode = 111;
},
{
glyphname = u;
layers = (
{
layerId = "6858B54D-AE35-498A-808F-6622AE1D9032";
shapes = (
{
closed = 1;
nodes = (
(266.686,326.702,l),
(195.452,381.612,l),
(295.287,511.127,l),
(366.521,456.217,l)
);
},
{
closed = 1;
nodes = (
(22.946,327.601,l),
(-48.288,382.511,l),
(51.547,512.026,l),
(122.781,457.116,l)
);
},
{
closed = 1;
nodes = (
(301.678,91.712,l),
(301.678,384.844,l),
(422.974,384.844,l),
(422.974,91.712,l)
);
},
{
closed = 1;
nodes = (
(408.334,123.284,l),
(226.241,0.64,l),
(23.703,134.058,l),
(90.425,235.354,l),
(225.495,146.386,l),
(340.578,223.891,l)
);
},
{
closed = 1;
nodes = (
(432.61,1.935,l),
(367.707,64.2,l),
(473.837,174.827,l),
(538.74,112.562,l)
);
},
{
closed = 1;
nodes = (
(496.44,106.39,l),
(413.56,19.61,l),
(324.56,104.61,l),
(407.44,191.39,l)
);
},
{
closed = 1;
nodes = (
(440.774,408.592,l),
(373.226,309.408,l),
(257.226,388.408,l),
(324.774,487.592,l)
);
},
{
closed = 1;
nodes = (
(197.774,408.592,l),
(130.226,309.408,l),
(14.226,388.408,l),
(81.774,487.592,l)
);
},
{
closed = 1;
nodes = (
(179.974,122.036,l),
(58.678,122.036,l),
(58.678,384.844,l),
(179.974,384.844,l)
);
}
);
width = 487;
},
{
layerId = "247F2779-B715-405B-B734-48E41FBA5128";
shapes = (
{
attr = {
strokeWidth = 56;
};
closed = 0;
nodes = (
(421,69,l),
(380,33,l),
(332,80,l),
(332,153,l),
(332,435,l),
(284,466,l),
(284,466,o),
(250,426,o),
(250,426,c)
);
},
{
attr = {
strokeWidth = 56;
};
closed = 0;
nodes = (
(108,114,l),
(108,435,l),
(60,466,l),
(26,426,l)
);
},
{
attr = {
strokeWidth = 56;
};
closed = 0;
nodes = (
(332,135,l),
(186,33,l),
(84,150,l)
);
},
{
attr = {
strokeWidth = 56;
};
closed = 0;
nodes = (
(358,419,l),
(323,441,l)
);
},
{
attr = {
strokeWidth = 56;
};
closed = 0;
nodes = (
(134,419,l),
(99,441,l)
);
},
{
attr = {
strokeWidth = 56;
};
closed = 0;
nodes = (
(348,64,l),
(338,75,o),
(314,97,o),
(304,108,c)
);
}
);
width = 447;
}
);
unicode = 117;
},
{
glyphname = m;
layers = (
{
layerId = "6858B54D-AE35-498A-808F-6622AE1D9032";
shapes = (
{
closed = 1;
nodes = (
(218.314,186.298,l),
(289.548,131.388,l),
(189.713,1.873,l),
(118.479,56.783,l)
);
},
{
closed = 1;
nodes = (
(462.054,185.399,l),
(533.288,130.489,l),
(433.453,0.974,l),
(362.219,55.884,l)
);
},
{
closed = 1;
nodes = (
(183.322,421.288,l),
(183.322,128.156,l),
(62.026,128.156,l),
(62.026,421.288,l)
);
},
{
closed = 1;
nodes = (
(76.666,389.716,l),
(259.303,512.727,l),
(441.832,388.547,l),
(373.607,288.257,l),
(258.961,366.247,l),
(144.422,289.109,l)
);
},
{
closed = 1;
nodes = (
(52.629,511.312,l),
(117.055,448.553,l),
(15.421,344.221,l),
(-49.004,406.981,l)
);
},
{
closed = 1;
nodes = (
(-11.44,406.61,l),
(71.44,493.39,l),
(160.44,408.39,l),
(77.56,321.61,l)
);
},
{
closed = 1;
nodes = (
(44.226,104.408,l),
(111.774,203.592,l),
(227.774,124.592,l),
(160.226,25.408,l)
);
},
{
closed = 1;
nodes = (
(287.226,104.408,l),
(354.774,203.592,l),
(470.774,124.592,l),
(403.226,25.408,l)
);
},
{
closed = 1;
nodes = (
(705.054,185.399,l),
(776.288,130.489,l),
(676.453,0.974,l),
(605.219,55.884,l)
);
},
{
closed = 1;
nodes = (
(426.322,421.288,l),
(426.322,128.156,l),
(305.026,128.156,l),
(305.026,421.288,l)
);
},
{
closed = 1;
nodes = (
(548.629,396.018,l),
(669.925,396.018,l),
(669.925,128.156,l),
(548.629,128.156,l)
);
},
{
closed = 1;
nodes = (
(320.142,390.033,l),
(502.304,510.245,l),
(684.361,388.864,l),
(617.078,287.94,l),
(501.96,364.685,l),
(386.947,288.792,l)
);
},
{
closed = 1;
nodes = (
(530.226,104.408,l),
(597.774,203.592,l),
(713.774,124.592,l),
(646.226,25.408,l)
);
}
);
width = 735;
},
{
layerId = "247F2779-B715-405B-B734-48E41FBA5128";
shapes = (
{
attr = {
strokeWidth = 56;
};
closed = 0;
nodes = (
(23,430,l),
(64,466,l),
(112,419,l),
(112,346,l),
(112,64,l),
(160,33,l),
(160,33,o),
(194,73,o),
(194,73,c)
);
},
{
attr = {
strokeWidth = 56;
};
closed = 0;
nodes = (
(336,385,l),
(336,64,l),
(384,33,l),
(418,73,l)
);
},
{
attr = {
strokeWidth = 56;
};
closed = 0;
nodes = (
(112,364,l),
(258,466,l),
(360,349,l)
);
},
{
attr = {
strokeWidth = 56;
};
closed = 0;
nodes = (
(86,80,l),
(121,58,l)
);
},
{
attr = {
strokeWidth = 56;
};
closed = 0;
nodes = (
(310,80,l),
(345,58,l)
);
},
{
attr = {
strokeWidth = 56;
};
closed = 0;
nodes = (
(96,435,l),
(106,424,o),
(130,402,o),
(140,391,c)
);
},
{
attr = {
strokeWidth = 56;
};
closed = 0;
nodes = (
(560,385,l),
(560,64,l),
(608,33,l),
(642,73,l)
);
},
{
attr = {
strokeWidth = 56;
};
closed = 0;
nodes = (
(338,364,l),
(482,466,l),
(584,349,l)
);
},
{
attr = {
strokeWidth = 56;
};
closed = 0;
nodes = (
(534,80,l),
(569,58,l)
);
}
);
width = 671;
}
);
unicode = 109;
},
{
glyphname = i;
layers = (
{
layerId = "6858B54D-AE35-498A-808F-6622AE1D9032";
shapes = (
{
attr = {
strokeWidth = 120;
};
closed = 0;
nodes = (
(75,560,l),
(145,632,l)
);
},
{
closed = 1;
nodes = (
(216.314,186.298,l),
(287.548,131.388,l),
(187.713,1.873,l),
(116.479,56.783,l)
);
},
{
closed = 1;
nodes = (
(60.026,407.136,l),
(181.322,407.136,l),
(181.322,128.156,l),
(60.026,128.156,l)
);
},
{
closed = 1;
nodes = (
(48.571,512.648,l),
(117.113,454.413,l),
(15.48,334.791,l),
(-53.063,393.026,l)
);
},
{
closed = 1;
nodes = (
(-8.549,402.417,l),
(64.549,497.583,l),
(202.549,391.583,l),
(129.451,296.417,l)
);
},
{
closed = 1;
nodes = (
(42.226,104.408,l),
(109.774,203.592,l),
(225.774,124.592,l),
(158.226,25.408,l)
);
}
);
width = 240;
},
{
layerId = "247F2779-B715-405B-B734-48E41FBA5128";
shapes = (
{
attr = {
strokeWidth = 56;
};
closed = 0;
nodes = (
(23,430,l),
(64,466,l),
(112,419,l),
(112,346,l),
(112,64,l),
(160,33,l),
(160,33,o),
(194,73,o),
(194,73,c)
);
},
{
attr = {
strokeWidth = 56;
};
closed = 0;
nodes = (
(86,80,l),
(121,58,l)
);
},
{
attr = {
strokeWidth = 56;
};
closed = 0;
nodes = (
(96,435,l),
(106,424,o),
(130,402,o),
(140,391,c)
);
},
{
attr = {
strokeWidth = 56;
};
closed = 0;
nodes = (
(100,570,l),
(150,618,l)
);
}
);
width = 224;
}
);
unicode = 105;
},
{
glyphname = j;
layers = (
{
guides = (
{
angle = 90;
position = "{-71.8, 0}";
}
);
layerId = "6858B54D-AE35-498A-808F-6622AE1D9032";
shapes = (
{
closed = 1;
nodes = (
(59.026,407.136,l),
(180.322,407.136,l),
(180.327,-84.388,l),
(20.265,-202.637,l),
(-51.812,-105.078,l),
(59.026,-23.191,l)
);
},
{
closed = 1;
nodes = (
(47.571,512.648,l),
(116.113,454.413,l),
(14.48,334.791,l),
(-54.063,393.026,l)
);
},
{
closed = 1;
nodes = (
(-9.549,402.417,l),
(63.549,497.583,l),
(201.549,391.583,l),
(128.451,296.417,l)
);
},
{
closed = 1;
nodes = (
(129.02,538.175,l),
(42.98,621.825,l),
(112.98,693.825,l),
(199.02,610.175,l)
);
}
);
width = 238;
},
{
guides = (
{
angle = 90;
position = "{6, 0}";
}
);
layerId = "247F2779-B715-405B-B734-48E41FBA5128";
shapes = (
{
attr = {
strokeWidth = 56;
};
closed = 0;
nodes = (
(38,430,l),
(79,466,l),
(127,419,l),
(127,346,l),
(127,-16,l),
(127,-16,o),
(24,-116,o),
(24,-116,c)
);
},
{
attr = {
strokeWidth = 56;
};
closed = 0;
nodes = (
(111,435,l),
(121,424,o),
(146,401,o),
(156,390,c)
);
},
{
attr = {
strokeWidth = 56;
};
closed = 0;
nodes = (
(115,570,l),
(165,618,l)
);
}
);
width = 238;
}
);
unicode = 106;
},
{
glyphname = k;
layers = (
{
layerId = "6858B54D-AE35-498A-808F-6622AE1D9032";
shapes = (
{
attr = {
strokeWidth = 110;
};
closed = 0;
nodes = (
(152,244,l),
(412,340,l),
(412,439,l),
(312,485,l),
(138,414,l)
);
},
{
attr = {
strokeWidth = 110;
};
closed = 0;
nodes = (
(264,291,l),
(510,29,l)
);
},
{
closed = 1;
nodes = (
(216.314,186.298,l),
(287.548,131.388,l),
(187.713,1.873,l),
(116.479,56.783,l)
);
},
{
closed = 1;
nodes = (
(525.42,167.641,l),
(588.241,103.276,l),
(475.815,-6.452,l),
(412.994,57.913,l)
);
},
{
closed = 1;
nodes = (
(42.939,104.751,l),
(111.213,205.001,l),
(228.461,125.152,l),
(160.187,24.901,l)
);
},
{
closed = 1;
nodes = (
(48.705,758.451,l),
(117.989,699.586,l),
(15.257,578.672,l),
(-54.027,637.536,l)
);
},
{
closed = 1;
nodes = (
(-8.383,647.007,l),
(65.502,743.197,l),
(204.986,636.057,l),
(131.101,539.867,l)
);
},
{
attr = {
strokeWidth = 120;
};
closed = 0;
nodes = (
(119.663,636.588,l),
(119.663,109.961,l)
);
}
);
width = 540;
},
{
layerId = "247F2779-B715-405B-B734-48E41FBA5128";
shapes = (
{
attr = {
strokeWidth = 56;
};
closed = 0;
nodes = (
(120,217,l),
(332,349,l),
(332,403,l),
(251,465,l),
(110,374,l)
);
},
{
attr = {
strokeWidth = 56;
};
closed = 0;
nodes = (
(180,250,l),
(370,33,l),
(414,83,l)
);
},
{
attr = {
strokeWidth = 56;
};
closed = 0;
nodes = (
(23,620,l),
(64,656,l),
(112,609,l),
(112,346,l),
(112,64,l),
(160,33,l),
(160,33,o),
(194,73,o),
(194,73,c)
);
},
{
attr = {
strokeWidth = 56;
};
closed = 0;
nodes = (
(86,80,l),
(121,58,l)
);
},
{
attr = {
strokeWidth = 56;
};
closed = 0;
nodes = (
(96,625,l),
(106,614,o),
(130,592,o),
(140,581,c)
);
}
);
width = 420;
}
);
unicode = 107;
},
{
glyphname = l;
layers = (
{
layerId = "6858B54D-AE35-498A-808F-6622AE1D9032";
shapes = (
{
closed = 1;
nodes = (
(58,631,l),
(178,631,l),
(178,110,l),
(58,110,l)
);
},
{
closed = 1;
nodes = (
(214.314,186.298,l),
(285.548,131.388,l),
(185.713,1.873,l),
(114.479,56.783,l)
);
},
{
closed = 1;
nodes = (
(40.226,104.408,l),
(107.774,203.592,l),
(223.774,124.592,l),
(156.226,25.408,l)
);
},
{
closed = 1;
nodes = (
(46.571,750.648,l),
(115.113,692.413,l),
(13.48,572.791,l),
(-55.063,631.026,l)
);
},
{
closed = 1;
nodes = (
(-10.549,640.417,l),
(62.549,735.583,l),
(200.549,629.583,l),
(127.451,534.417,l)
);
}
);
width = 240;
},
{
layerId = "247F2779-B715-405B-B734-48E41FBA5128";
shapes = (
{
attr = {
strokeWidth = 56;
};
closed = 0;
nodes = (
(23,620,l),
(64,656,l),
(112,609,l),
(112,346,l),
(112,64,l),
(160,33,l),
(160,33,o),
(194,73,o),
(194,73,c)
);
},
{
attr = {
strokeWidth = 56;
};
closed = 0;
nodes = (
(86,80,l),
(121,58,l)
);
},
{
attr = {
strokeWidth = 56;
};
closed = 0;
nodes = (
(96,625,l),
(106,614,o),
(130,592,o),
(140,581,c)
);
}
);
width = 224;
}
);
unicode = 108;
},
{
glyphname = e;
layers = (
{
layerId = "6858B54D-AE35-498A-808F-6622AE1D9032";
shapes = (
{
attr = {
strokeWidth = 110;
};
closed = 0;
nodes = (
(116,74,l),
(116,384,l),
(116,384,o),
(297,458,o),
(297,458,c),
(373,372,l),
(374,357,l),
(308,277,o),
(288,260,o),
(135,233,c)
);
},
{
attr = {
strokeWidth = 110;
};
closed = 0;
nodes = (
(156,401,l),
(69,364,l)
);
},
{
attr = {
strokeWidth = 110;
};
closed = 0;
nodes = (
(439,154,l),
(248,42,l),
(69,112,l)
);
}
);
width = 479;
},
{
layerId = "247F2779-B715-405B-B734-48E41FBA5128";
shapes = (
{
attr = {
strokeWidth = 56;
};
closed = 0;
nodes = (
(98,64,l),
(98,394,l),
(98,394,o),
(102,396,o),
(108,399,cs),
(139,416,o),
(235,471,o),
(235,471,c),
(322,367,l),
(263,299,o),
(234,270,o),
(116,233,c)
);
},
{
attr = {
strokeWidth = 56;
};
closed = 0;
nodes = (
(132,412,l),
(59,374,l)
);
},
{
attr = {
strokeWidth = 56;
};
closed = 0;
nodes = (
(354,140,l),
(195,29,l),
(55,112,l)
);
}
);
width = 379;
}
);
unicode = 101;
},
{
glyphname = f;
layers = (
{
layerId = "1001F173-B907-4B82-82ED-47A79DBA7AEA";
associatedMasterId = "6858B54D-AE35-498A-808F-6622AE1D9032";
name = 1;
shapes = (
{
attr = {
strokeWidth = 100;
};
closed = 0;
nodes = (
(20,441,l),
(319,441,l)
);
},
{
attr = {
strokeWidth = 100;
};
closed = 0;
nodes = (
(296,130,l),
(194,60,l),
(77,132,l)
);
},
{
attr = {
strokeWidth = 100;
};
closed = 0;
nodes = (
(332,584,l),
(235,661,l),
(121,580,l),
(120,91,l)
);
}
);
width = 319;
},
{
layerId = "6858B54D-AE35-498A-808F-6622AE1D9032";
shapes = (
{
closed = 1;
nodes = (
(368,632,l),
(298,536,l),
(227,587,l),
(182,551,l),
(181,104,l),
(61,104,l),
(62,609,l),
(225,737,l)
);
},
{
closed = 1;
nodes = (
(244.662,210.012,l),
(316.762,156.243,l),
(198.039,-2.953,l),
(125.94,50.816,l)
);
},
{
closed = 1;
nodes = (
(18.984,480.832,l),
(293.304,480.832,l),
(293.304,390.891,l),
(18.984,390.891,l)
);
},
{
closed = 1;
nodes = (
(41.486,104.921,l),
(110.514,203.079,l),
(265.514,94.079,l),
(196.486,-4.079,l)
);
}
);
width = 300;
},
{
layerId = "247F2779-B715-405B-B734-48E41FBA5128";
shapes = (
{
attr = {
strokeWidth = 56;
};
closed = 0;
nodes = (
(40,463,l),
(277,463,l)
);
},
{
attr = {
strokeWidth = 56;
};
closed = 0;
nodes = (
(81,91,l),
(133,59,l)
);
},
{
attr = {
strokeWidth = 56;
};
closed = 0;
nodes = (
(251,103,l),
(173,33,l),
(124,64,l)
);
},
{
attr = {
strokeWidth = 56;
};
closed = 0;
nodes = (
(301,584,l),
(214,666,l),
(111,578,l),
(110,74,l)
);
}
);
width = 293;
}
);
unicode = 102;
},
{
glyphname = t;
layers = (
{
guides = (
{
angle = 90;
position = "{-3000.4, 0}";
},
{
angle = 90;
position = "{-3306.4, 0}";
},
{
angle = 90;
position = "{-3002.8, 0}";
}
);
layerId = "1001F173-B907-4B82-82ED-47A79DBA7AEA";
associatedMasterId = "6858B54D-AE35-498A-808F-6622AE1D9032";
name = 1;
shapes = (
{
attr = {
strokeWidth = 100;
};
closed = 0;
nodes = (
(40,440,l),
(319,440,l)
);
},
{
attr = {
strokeWidth = 100;
};
closed = 0;
nodes = (
(119,89,l),
(120,589,l)
);
},
{
attr = {
strokeWidth = 100;
};
closed = 0;
nodes = (
(86,129,l),
(207,57,l),
(339,145,l)
);
}
);
width = 360;
},
{
guides = (
{
angle = 90;
position = "{-3021.4, 0}";
},
{
angle = 90;
position = "{-3327.4, 0}";
},
{
angle = 90;
position = "{-3023.8, 0}";
}
);
layerId = "6858B54D-AE35-498A-808F-6622AE1D9032";
shapes = (
{
attr = {
strokeWidth = 120;
};
closed = 0;
nodes = (
(120,600,l),
(119,104,l)
);
},
{
closed = 1;
nodes = (
(242.662,210.012,l),
(314.762,156.243,l),
(196.039,-2.953,l),
(123.94,50.816,l)
);
},
{
attr = {
strokeWidth = 100;
};
closed = 0;
nodes = (
(18.605,430.385,l),
(117.663,430.385,o),
(190.441,430.385,o),
(289.499,430.385,c)
);
},
{
closed = 1;
nodes = (
(39.486,104.921,l),
(108.514,203.079,l),
(263.514,94.079,l),
(194.486,-4.079,l)
);
}
);
width = 298;
},
{
guides = (
{
angle = 90;
position = "{-2492, 0}";
},
{
angle = 90;
position = "{-2747, 0}";
},
{
angle = 90;
position = "{-2494, 0}";
}
);
layerId = "247F2779-B715-405B-B734-48E41FBA5128";
shapes = (
{
attr = {
strokeWidth = 56;
};
closed = 0;
nodes = (
(41,463,l),
(278,463,l)
);
},
{
attr = {
strokeWidth = 56;
};
closed = 0;
nodes = (
(111,74,l),
(112,589,l)
);
},
{
attr = {
strokeWidth = 56;
};
closed = 0;
nodes = (
(71,104,l),
(178,28,l),
(293,130,l)
);
}
);
width = 307;
}
);
unicode = 116;
},
{
glyphname = r;
layers = (
{
layerId = "1001F173-B907-4B82-82ED-47A79DBA7AEA";
associatedMasterId = "6858B54D-AE35-498A-808F-6622AE1D9032";
name = 1;
shapes = (
{
attr = {
strokeWidth = 100;
};
closed = 0;
nodes = (
(137,343,l),
(288,439,l),
(373,379,l)
);
},
{
attr = {
strokeWidth = 100;
};
closed = 0;
nodes = (
(39,385,l),
(105,434,l),
(159,384,l),
(159,92,l)
);
},
{
attr = {
strokeWidth = 100;
};
closed = 0;
nodes = (
(159,385,l),
(159,385,o),
(202,345,o),
(202,345,c)
);
},
{
attr = {
strokeWidth = 100;
};
closed = 0;
nodes = (
(105,119,l),
(233,61,l),
(263,110,l)
);
}
);
width = 400;
},
{
layerId = "6858B54D-AE35-498A-808F-6622AE1D9032";
shapes = (
{
closed = 1;
nodes = (
(230.984,193.853,l),
(301.659,138.225,l),
(191.931,-1.184,l),
(121.256,54.444,l)
);
},
{
attr = {
strokeWidth = 100;
};
closed = 0;
nodes = (
(121.685,297.97,l),
(270.272,437.46,l),
(346.082,363.672,l)
);
},
{
closed = 1;
nodes = (
(60.026,407.136,l),
(181.322,407.136,l),
(181.322,128.156,l),
(60.026,128.156,l)
);
},
{
closed = 1;
nodes = (
(48.571,512.648,l),
(117.113,454.413,l),
(15.48,334.791,l),
(-53.063,393.026,l)
);
},
{
closed = 1;
nodes = (
(-8.549,402.417,l),
(64.549,497.583,l),
(202.549,391.583,l),
(129.451,296.417,l)
);
},
{
closed = 1;
nodes = (
(42.226,104.408,l),
(109.774,203.592,l),
(225.774,124.592,l),
(158.226,25.408,l)
);
}
);
width = 340;
},
{
layerId = "247F2779-B715-405B-B734-48E41FBA5128";
shapes = (
{
attr = {
strokeWidth = 56;
};
closed = 0;
nodes = (
(23,430,l),
(64,466,l),
(112,419,l),
(112,346,l),
(112,64,l),
(160,33,l),
(160,33,o),
(194,73,o),
(194,73,c)
);
},
{
attr = {
strokeWidth = 56;
};
closed = 0;
nodes = (
(86,80,l),
(121,58,l)
);
},
{
attr = {
strokeWidth = 56;
};
closed = 0;
nodes = (
(96,435,l),
(96,435,o),
(140,391,o),
(140,391,c)
);
},
{
attr = {
strokeWidth = 56;
};
closed = 0;
nodes = (
(112,354,l),
(226,466,l),
(287,397,l)
);
}
);
width = 308;
}
);
unicode = 114;
},
{
glyphname = h;
layers = (
{
layerId = "1001F173-B907-4B82-82ED-47A79DBA7AEA";
associatedMasterId = "6858B54D-AE35-498A-808F-6622AE1D9032";
name = 1;
shapes = (
{
attr = {
strokeWidth = 100;
};
closed = 0;
nodes = (
(40,655,l),
(106,708,l),
(160,654,l),
(160,91,l)
);
},
{
attr = {
strokeWidth = 100;
};
closed = 0;
nodes = (
(152,663,l),
(152,663,o),
(195,620,o),
(195,620,c)
);
},
{
attr = {
strokeWidth = 100;
};
closed = 0;
nodes = (
(106,119,l),
(234,58,l),
(264,109,l)
);
},
{
attr = {
strokeWidth = 100;
};
closed = 0;
nodes = (
(440,367,l),
(440,91,l)
);
},
{
attr = {
strokeWidth = 100;
};
closed = 0;
nodes = (
(153,349,l),
(346,457,l),
(467,333,l)
);
},
{
attr = {
strokeWidth = 100;
};
closed = 0;
nodes = (
(386,119,l),
(509,58,l),
(543,109,l)
);
}
);
width = 601;
},
{
layerId = "6858B54D-AE35-498A-808F-6622AE1D9032";
shapes = (
{
closed = 1;
nodes = (
(58,591,l),
(178,591,l),
(178,100,l),
(58,100,l)
);
},
{
closed = 1;
nodes = (
(40.226,104.408,l),
(107.774,203.592,l),
(223.774,124.592,l),
(156.226,25.408,l)
);
},
{
closed = 1;
nodes = (
(46.571,702.648,l),
(115.113,644.413,l),
(13.48,524.791,l),
(-55.063,583.026,l)
);
},
{
closed = 1;
nodes = (
(-10.549,592.417,l),
(62.549,687.583,l),
(200.549,581.583,l),
(127.451,486.417,l)
);
},
{
closed = 1;
nodes = (
(214.314,186.298,l),
(285.548,131.388,l),
(185.713,1.873,l),
(114.479,56.783,l)
);
},
{
closed = 1;
nodes = (
(458.054,185.399,l),
(529.288,130.489,l),
(429.453,0.974,l),
(358.219,55.884,l)
);
},
{
closed = 1;
nodes = (
(179.322,421.288,l),
(179.322,128.156,l),
(58.026,128.156,l),
(58.026,421.288,l)
);
},
{
closed = 1;
nodes = (
(72.666,389.716,l),
(254.759,512.36,l),
(457.297,378.942,l),
(390.575,277.646,l),
(255.505,366.614,l),
(140.422,289.109,l)
);
},
{
closed = 1;
nodes = (
(283.226,104.408,l),
(350.774,203.592,l),
(466.774,124.592,l),
(399.226,25.408,l)
);
},
{
closed = 1;
nodes = (
(301.026,390.964,l),
(422.322,390.964,l),
(422.322,128.156,l),
(301.026,128.156,l)
);
}
);
width = 480;
},
{
layerId = "247F2779-B715-405B-B734-48E41FBA5128";
shapes = (
{
attr = {
strokeWidth = 56;
};
closed = 0;
nodes = (
(23,620,l),
(64,656,l),
(112,609,l),
(112,346,l),
(112,64,l),
(160,33,l),
(160,33,o),
(194,73,o),
(194,73,c)
);
},
{
attr = {
strokeWidth = 56;
};
closed = 0;
nodes = (
(86,80,l),
(121,58,l)
);
},
{
attr = {
strokeWidth = 56;
};
closed = 0;
nodes = (
(96,625,l),
(106,614,o),
(130,592,o),
(140,581,c)
);
},
{
attr = {
strokeWidth = 56;
};
closed = 0;
nodes = (
(160,33,l),
(160,33,o),
(194,73,o),
(194,73,c)
);
},
{
attr = {
strokeWidth = 56;
};
closed = 0;
nodes = (
(336,385,l),
(336,64,l),
(384,33,l),
(418,73,l)
);
},
{
attr = {
strokeWidth = 56;
};
closed = 0;
nodes = (
(112,364,l),
(258,466,l),
(360,349,l)
);
},
{
attr = {
strokeWidth = 56;
};
closed = 0;
nodes = (
(310,80,l),
(345,58,l)
);
}
);
width = 448;
}
);
unicode = 104;
},
{
glyphname = v;
layers = (
{
layerId = "1001F173-B907-4B82-82ED-47A79DBA7AEA";
associatedMasterId = "6858B54D-AE35-498A-808F-6622AE1D9032";
name = 1;
shapes = (
{
attr = {
strokeWidth = 100;
};
closed = 0;
nodes = (
(440,117,l),
(440,403,l)
);
},
{
attr = {
strokeWidth = 100;
};
closed = 0;
nodes = (
(160,146,l),
(160,403,l)
);
},
{
attr = {
strokeWidth = 100;
};
closed = 0;
nodes = (
(486,165,l),
(271,56,l),
(134,177,l)
);
},
{
attr = {
strokeWidth = 100;
};
closed = 0;
nodes = (
(494,374,l),
(366,437,l),
(336,384,l)
);
},
{
attr = {
strokeWidth = 100;
};
closed = 0;
nodes = (
(214,374,l),
(91,437,l),
(53,384,l)
);
}
);
width = 561;
},
{
layerId = "6858B54D-AE35-498A-808F-6622AE1D9032";
shapes = (
{
closed = 1;
nodes = (
(265.686,326.702,l),
(194.452,381.612,l),
(294.287,511.127,l),
(365.521,456.217,l)
);
},
{
closed = 1;
nodes = (
(21.946,327.601,l),
(-49.288,382.511,l),
(50.547,512.026,l),
(121.781,457.116,l)
);
},
{
closed = 1;
nodes = (
(421.974,124.058,l),
(300.678,124.058,l),
(300.678,384.844,l),
(421.974,384.844,l)
);
},
{
closed = 1;
nodes = (
(357.684,227.162,l),
(421.573,124.055,l),
(223.87,1.544,l),
(22.703,134.058,l),
(89.425,235.354,l),
(225.866,145.483,l)
);
},
{
closed = 1;
nodes = (
(439.774,408.592,l),
(372.226,309.408,l),
(256.226,388.408,l),
(323.774,487.592,l)
);
},
{
closed = 1;
nodes = (
(196.774,408.592,l),
(129.226,309.408,l),
(13.226,388.408,l),
(80.774,487.592,l)
);
},
{
closed = 1;
nodes = (
(178.974,122.036,l),
(57.678,122.036,l),
(57.678,384.844,l),
(178.974,384.844,l)
);
}
);
width = 479;
},
{
layerId = "247F2779-B715-405B-B734-48E41FBA5128";
shapes = (
{
attr = {
strokeWidth = 56;
};
closed = 0;
nodes = (
(112,114,l),
(112,435,l),
(68,466,l),
(30,426,l)
);
},
{
attr = {
strokeWidth = 56;
};
closed = 0;
nodes = (
(88,150,l),
(196,33,l),
(336,135,l),
(336,435,l),
(292,466,l),
(292,466,o),
(254,426,o),
(254,426,c)
);
},
{
attr = {
strokeWidth = 56;
};
closed = 0;
nodes = (
(362,417,l),
(327,441,l)
);
},
{
attr = {
strokeWidth = 56;
};
closed = 0;
nodes = (
(141,415,l),
(103,441,l)
);
}
);
width = 433;
}
);
unicode = 118;
},
{
glyphname = w;
layers = (
{
layerId = "1001F173-B907-4B82-82ED-47A79DBA7AEA";
associatedMasterId = "6858B54D-AE35-498A-808F-6622AE1D9032";
name = 1;
shapes = (
{
attr = {
strokeWidth = 100;
};
closed = 0;
nodes = (
(435,114,l),
(435,414,l)
);
},
{
attr = {
strokeWidth = 100;
};
closed = 0;
nodes = (
(155,141,l),
(155,414,l)
);
},
{
attr = {
strokeWidth = 100;
};
closed = 0;
nodes = (
(481,159,l),
(266,56,l),
(129,171,l)
);
},
{
attr = {
strokeWidth = 100;
};
closed = 0;
nodes = (
(489,386,l),
(361,446,l),
(331,396,l)
);
},
{
attr = {
strokeWidth = 100;
};
closed = 0;
nodes = (
(209,386,l),
(86,446,l),
(50,396,l)
);
},
{
attr = {
strokeWidth = 100;
};
closed = 0;
nodes = (
(714,114,l),
(714,414,l)
);
},
{
attr = {
strokeWidth = 100;
};
closed = 0;
nodes = (
(760,159,l),
(545,56,l),
(408,171,l)
);
},
{
attr = {
strokeWidth = 100;
};
closed = 0;
nodes = (
(768,386,l),
(640,446,l),
(610,396,l)
);
}
);
width = 835;
},
{
layerId = "6858B54D-AE35-498A-808F-6622AE1D9032";
shapes = (
{
closed = 1;
nodes = (
(266.686,326.702,l),
(195.452,381.612,l),
(295.287,511.127,l),
(366.521,456.217,l)
);
},
{
closed = 1;
nodes = (
(22.946,327.601,l),
(-48.288,382.511,l),
(51.547,512.026,l),
(122.781,457.116,l)
);
},
{
closed = 1;
nodes = (
(422.974,124.058,l),
(301.678,124.058,l),
(301.678,384.844,l),
(422.974,384.844,l)
);
},
{
closed = 1;
nodes = (
(358.684,227.162,l),
(422.573,124.055,l),
(224.87,1.544,l),
(23.703,134.058,l),
(90.425,235.354,l),
(226.866,145.483,l)
);
},
{
closed = 1;
nodes = (
(440.774,408.592,l),
(373.226,309.408,l),
(257.226,388.408,l),
(324.774,487.592,l)
);
},
{
closed = 1;
nodes = (
(197.774,408.592,l),
(130.226,309.408,l),
(14.226,388.408,l),
(81.774,487.592,l)
);
},
{
closed = 1;
nodes = (
(179.974,122.036,l),
(58.678,122.036,l),
(58.678,384.844,l),
(179.974,384.844,l)
);
},
{
closed = 1;
nodes = (
(509.686,326.702,l),
(438.452,381.612,l),
(538.287,511.127,l),
(609.521,456.217,l)
);
},
{
closed = 1;
nodes = (
(265.946,327.601,l),
(194.712,382.511,l),
(294.547,512.026,l),
(365.781,457.116,l)
);
},
{
closed = 1;
nodes = (
(665.974,124.058,l),
(544.678,124.058,l),
(544.678,384.844,l),
(665.974,384.844,l)
);
},
{
closed = 1;
nodes = (
(601.684,227.162,l),
(665.573,124.055,l),
(467.87,1.544,l),
(266.703,134.058,l),
(333.425,235.354,l),
(469.866,145.483,l)
);
},
{
closed = 1;
nodes = (
(683.774,408.592,l),
(616.226,309.408,l),
(500.226,388.408,l),
(567.774,487.592,l)
);
},
{
closed = 1;
nodes = (
(440.774,408.592,l),
(373.226,309.408,l),
(257.226,388.408,l),
(324.774,487.592,l)
);
},
{
closed = 1;
nodes = (
(422.974,122.036,l),
(301.678,122.036,l),
(301.678,384.844,l),
(422.974,384.844,l)
);
}
);
width = 718;
},
{
layerId = "247F2779-B715-405B-B734-48E41FBA5128";
shapes = (
{
attr = {
strokeWidth = 56;
};
closed = 0;
nodes = (
(112,114,l),
(112,435,l),
(68,466,l),
(30,426,l)
);
},
{
attr = {
strokeWidth = 56;
};
closed = 0;
nodes = (
(84,150,l),
(196,33,l),
(336,135,l),
(336,435,l),
(292,466,l),
(292,466,o),
(254,426,o),
(254,426,c)
);
},
{
attr = {
strokeWidth = 56;
};
closed = 0;
nodes = (
(362,417,l),
(327,441,l)
);
},
{
attr = {
strokeWidth = 56;
};
closed = 0;
nodes = (
(141,415,l),
(103,441,l)
);
},
{
attr = {
strokeWidth = 56;
};
closed = 0;
nodes = (
(312,150,l),
(420,33,l),
(560,135,l),
(560,435,l),
(516,466,l),
(516,466,o),
(478,426,o),
(478,426,c)
);
},
{
attr = {
strokeWidth = 56;
};
closed = 0;
nodes = (
(586,417,l),
(551,441,l)
);
}
);
width = 657;
}
);
unicode = 119;
},
{
glyphname = y;
layers = (
{
layerId = "1001F173-B907-4B82-82ED-47A79DBA7AEA";
associatedMasterId = "6858B54D-AE35-498A-808F-6622AE1D9032";
name = 1;
shapes = (
{
attr = {
strokeWidth = 100;
};
closed = 0;
nodes = (
(107,-25,l),
(251,-104,l),
(421,-37,l),
(421,135,l)
);
},
{
attr = {
strokeWidth = 100;
};
closed = 0;
nodes = (
(421,107,l),
(421,417,l)
);
},
{
attr = {
strokeWidth = 100;
};
closed = 0;
nodes = (
(141,136,l),
(141,417,l)
);
},
{
attr = {
strokeWidth = 100;
};
closed = 0;
nodes = (
(467,155,l),
(252,46,l),
(115,167,l)
);
},
{
attr = {
strokeWidth = 100;
};
closed = 0;
nodes = (
(475,394,l),
(347,443,l),
(317,402,l)
);
},
{
attr = {
strokeWidth = 100;
};
closed = 0;
nodes = (
(195,394,l),
(72,443,l),
(38,402,l)
);
}
);
width = 540;
},
{
layerId = "6858B54D-AE35-498A-808F-6622AE1D9032";
shapes = (
{
attr = {
strokeWidth = 120;
};
closed = 0;
nodes = (
(51,-12,l),
(227,-124,l),
(365,-37,l),
(365,135,l)
);
},
{
closed = 1;
nodes = (
(268.686,326.702,l),
(197.452,381.612,l),
(297.287,511.127,l),
(368.521,456.217,l)
);
},
{
closed = 1;
nodes = (
(24.946,327.601,l),
(-46.288,382.511,l),
(53.547,512.026,l),
(124.781,457.116,l)
);
},
{
closed = 1;
nodes = (
(424.974,124.058,l),
(303.678,124.058,l),
(303.678,384.844,l),
(424.974,384.844,l)
);
},
{
closed = 1;
nodes = (
(360.684,227.162,l),
(424.573,124.055,l),
(226.87,1.544,l),
(25.703,134.058,l),
(92.425,235.354,l),
(228.866,145.483,l)
);
},
{
closed = 1;
nodes = (
(442.774,408.592,l),
(375.226,309.408,l),
(259.226,388.408,l),
(326.774,487.592,l)
);
},
{
closed = 1;
nodes = (
(199.774,408.592,l),
(132.226,309.408,l),
(16.226,388.408,l),
(83.774,487.592,l)
);
},
{
closed = 1;
nodes = (
(181.974,122.036,l),
(60.678,122.036,l),
(60.678,384.844,l),
(181.974,384.844,l)
);
}
);
width = 484;
},
{
layerId = "247F2779-B715-405B-B734-48E41FBA5128";
shapes = (
{
attr = {
strokeWidth = 56;
};
closed = 0;
nodes = (
(112,114,l),
(112,435,l),
(68,466,l),
(30,426,l)
);
},
{
attr = {
strokeWidth = 56;
};
closed = 0;
nodes = (
(86,125,l),
(196,41,l),
(336,135,l),
(336,435,l),
(292,466,l),
(292,466,o),
(254,426,o),
(254,426,c)
);
},
{
attr = {
strokeWidth = 56;
};
closed = 0;
nodes = (
(362,417,l),
(327,441,l)
);
},
{
attr = {
strokeWidth = 56;
};
closed = 0;
nodes = (
(141,415,l),
(103,441,l)
);
},
{
attr = {
strokeWidth = 56;
};
closed = 0;
nodes = (
(67,-25,l),
(191,-106,l),
(336,-35,l),
(336,135,l)
);
}
);
width = 433;
}
);
unicode = 121;
},
{
glyphname = z;
layers = (
{
layerId = "1001F173-B907-4B82-82ED-47A79DBA7AEA";
associatedMasterId = "6858B54D-AE35-498A-808F-6622AE1D9032";
name = 1;
shapes = (
{
attr = {
strokeWidth = 100;
};
closed = 0;
nodes = (
(476,112,l),
(423,59,l),
(92,59,l),
(405,441,l),
(126,441,l),
(62,393,l)
);
},
{
attr = {
strokeWidth = 100;
};
closed = 0;
nodes = (
(91,240,l),
(427,242,l)
);
}
);
width = 519;
},
{
layerId = "6858B54D-AE35-498A-808F-6622AE1D9032";
shapes = (
{
closed = 1;
nodes = (
(462.109,150.891,l),
(539.891,73.109,l),
(470.783,3.997,l),
(21.763,3.955,l),
(14.69,18.593,l),
(306.162,386,l),
(169.333,386,l),
(120,349,l),
(54,437,l),
(132.666,496.002,l),
(515.237,496.045,l),
(522.31,481.407,l),
(230.838,114,l),
(425.218,114,l)
);
},
{
attr = {
strokeWidth = 100;
};
closed = 0;
nodes = (
(104,245,l),
(442,245,l)
);
}
);
width = 552;
},
{
layerId = "247F2779-B715-405B-B734-48E41FBA5128";
shapes = (
{
attr = {
strokeWidth = 56;
};
closed = 0;
nodes = (
(384,100,l),
(340,42,l),
(78,42,l),
(330,462,l),
(93,462,l),
(40,409,l)
);
},
{
attr = {
strokeWidth = 56;
};
closed = 0;
nodes = (
(70,252,l),
(350,254,l)
);
}
);
width = 420;
}
);
unicode = 122;
},
{
glyphname = c;
layers = (
{
layerId = "1001F173-B907-4B82-82ED-47A79DBA7AEA";
associatedMasterId = "6858B54D-AE35-498A-808F-6622AE1D9032";
name = 1;
shapes = (
{
attr = {
strokeWidth = 100;
};
closed = 0;
nodes = (
(445,152,l),
(254,50,l),
(75,126,l)
);
},
{
attr = {
strokeWidth = 100;
};
closed = 0;
nodes = (
(121,91,l),
(121,380,l),
(121,380,o),
(276,445,o),
(276,445,c),
(391,387,l),
(445,418,l)
);
}
);
width = 501;
},
{
layerId = "6858B54D-AE35-498A-808F-6622AE1D9032";
shapes = (
{
attr = {
strokeWidth = 120;
};
closed = 0;
nodes = (
(445,140,l),
(254,29,l),
(75,112,l)
);
},
{
attr = {
strokeWidth = 120;
};
closed = 0;
nodes = (
(121,74,l),
(121,389,l),
(121,389,o),
(276,461,o),
(276,461,c),
(391,397,l),
(445,431,l)
);
}
);
width = 492;
},
{
layerId = "247F2779-B715-405B-B734-48E41FBA5128";
shapes = (
{
attr = {
strokeWidth = 56;
};
closed = 0;
nodes = (
(354,140,l),
(195,29,l),
(55,112,l)
);
},
{
attr = {
strokeWidth = 56;
};
closed = 0;
nodes = (
(97,74,l),
(97,399,l),
(128,416,o),
(213,471,o),
(213,471,c),
(315,392,l),
(355,430,l)
);
}
);
width = 392;
}
);
unicode = 99;
},
{
glyphname = q;
layers = (
{
guides = (
{
angle = 90;
position = "{254, 0}";
}
);
layerId = "1001F173-B907-4B82-82ED-47A79DBA7AEA";
associatedMasterId = "6858B54D-AE35-498A-808F-6622AE1D9032";
name = 1;
shapes = (
{
attr = {
strokeWidth = 100;
};
closed = 0;
nodes = (
(401,119,l),
(401,-140,l)
);
},
{
attr = {
strokeWidth = 100;
};
closed = 0;
nodes = (
(68,111,l),
(256,41,l),
(401,109,l),
(401,396,l),
(269,454,l),
(121,381,l),
(121,88,l)
);
},
{
attr = {
strokeWidth = 100;
};
closed = 0;
nodes = (
(407,394,l),
(456,368,l)
);
}
);
width = 520;
},
{
guides = (
{
angle = 90;
position = "{236, 0}";
}
);
layerId = "6858B54D-AE35-498A-808F-6622AE1D9032";
shapes = (
{
attr = {
strokeWidth = 120;
};
closed = 0;
nodes = (
(363,121,l),
(363,-200,l)
);
},
{
attr = {
strokeWidth = 120;
};
closed = 0;
nodes = (
(67,125,l),
(255,56,l),
(362,123,l),
(362,402,l),
(248,458,l),
(120,387,l),
(120,102,l)
);
},
{
attr = {
strokeWidth = 120;
};
closed = 0;
nodes = (
(370,399,l),
(419,374,l)
);
}
);
width = 480;
},
{
guides = (
{
angle = 90;
position = "{220, 0}";
}
);
layerId = "247F2779-B715-405B-B734-48E41FBA5128";
shapes = (
{
attr = {
strokeWidth = 56;
};
closed = 0;
nodes = (
(321,121,l),
(321,-140,l)
);
},
{
attr = {
strokeWidth = 56;
};
closed = 0;
nodes = (
(57,107,l),
(210,29,l),
(321,107,l),
(321,406,l),
(220,472,l),
(97,391,l),
(97,82,l)
);
},
{
attr = {
strokeWidth = 56;
};
closed = 0;
nodes = (
(321,406,l),
(362,379,l)
);
}
);
width = 420;
}
);
unicode = 113;
},
{
glyphname = b;
layers = (
{
layerId = "1001F173-B907-4B82-82ED-47A79DBA7AEA";
associatedMasterId = "6858B54D-AE35-498A-808F-6622AE1D9032";
name = 1;
shapes = (
{
attr = {
strokeWidth = 100;
};
closed = 0;
nodes = (
(108,113,l),
(296,42,l),
(441,111,l),
(441,400,l),
(309,458,l),
(161,385,l),
(161,90,l)
);
},
{
attr = {
strokeWidth = 100;
};
closed = 0;
nodes = (
(455,394,l),
(504,368,l)
);
},
{
attr = {
strokeWidth = 100;
};
closed = 0;
nodes = (
(40,655,l),
(106,708,l),
(160,654,l),
(160,80,l)
);
},
{
attr = {
strokeWidth = 100;
};
closed = 0;
nodes = (
(152,663,l),
(152,663,o),
(195,620,o),
(195,620,c)
);
}
);
width = 560;
},
{
layerId = "6858B54D-AE35-498A-808F-6622AE1D9032";
shapes = (
{
closed = 1;
nodes = (
(60,631,l),
(180,631,l),
(180,110,l),
(60,110,l)
);
},
{
closed = 1;
nodes = (
(87.673,190.326,l),
(248.074,131.455,l),
(302,165.222,l),
(302,373.625,l),
(249.686,399.323,l),
(180,360.669,l),
(180,111,l),
(60,111,l),
(59.994,431.335,l),
(246.313,534.682,l),
(422.007,448.379,l),
(422.006,98.775,l),
(261.926,-1.46,l),
(46.327,77.674,l)
);
},
{
closed = 1;
nodes = (
(342.732,354.554,l),
(397.268,461.446,l),
(446.268,436.446,l),
(391.732,329.554,l)
);
},
{
closed = 1;
nodes = (
(48.571,750.648,l),
(117.113,692.413,l),
(15.48,572.791,l),
(-53.063,631.026,l)
);
},
{
closed = 1;
nodes = (
(-8.549,640.417,l),
(64.549,735.583,l),
(202.549,629.583,l),
(129.451,534.417,l)
);
}
);
width = 480;
},
{
layerId = "247F2779-B715-405B-B734-48E41FBA5128";
shapes = (
{
attr = {
strokeWidth = 56;
};
closed = 0;
nodes = (
(110,382,l),
(110,623,l)
);
},
{
attr = {
strokeWidth = 56;
};
closed = 0;
nodes = (
(110,627,l),
(62,658,l),
(28,618,l)
);
},
{
attr = {
strokeWidth = 56;
};
closed = 0;
nodes = (
(138,610,l),
(103,632,l)
);
},
{
attr = {
strokeWidth = 56;
};
closed = 0;
nodes = (
(375,396,l),
(222,474,l),
(111,396,l),
(111,97,l),
(212,31,l),
(335,112,l),
(335,421,l)
);
},
{
attr = {
strokeWidth = 56;
};
closed = 0;
nodes = (
(111,97,l),
(70,120,l)
);
}
);
width = 420;
}
);
unicode = 98;
},
{
glyphname = g;
layers = (
{
layerId = "1001F173-B907-4B82-82ED-47A79DBA7AEA";
associatedMasterId = "6858B54D-AE35-498A-808F-6622AE1D9032";
name = 1;
shapes = (
{
attr = {
strokeWidth = 100;
};
closed = 0;
nodes = (
(113,-34,l),
(275,-103,l),
(400,-32,l),
(400,135,l)
);
},
{
attr = {
strokeWidth = 100;
};
closed = 0;
nodes = (
(67,113,l),
(255,42,l),
(400,111,l),
(400,400,l),
(268,458,l),
(120,385,l),
(120,90,l)
);
},
{
attr = {
strokeWidth = 100;
};
closed = 0;
nodes = (
(408,397,l),
(457,371,l)
);
}
);
width = 519;
},
{
layerId = "6858B54D-AE35-498A-808F-6622AE1D9032";
shapes = (
{
attr = {
strokeWidth = 120;
};
closed = 0;
nodes = (
(65,126,l),
(243,67,l),
(360,124,l),
(360,390,l),
(246,443,l),
(118,376,l),
(118,105,l)
);
},
{
attr = {
strokeWidth = 120;
};
closed = 0;
nodes = (
(368,387,l),
(417,363,l)
);
},
{
attr = {
strokeWidth = 120;
};
closed = 0;
nodes = (
(46,-52,l),
(272,-130,l),
(360,-67,l),
(360,135,l)
);
}
);
width = 479;
},
{
layerId = "247F2779-B715-405B-B734-48E41FBA5128";
shapes = (
{
attr = {
strokeWidth = 56;
};
closed = 0;
nodes = (
(70,-34,l),
(210,-106,l),
(321,-30,l),
(321,135,l)
);
},
{
attr = {
strokeWidth = 56;
};
closed = 0;
nodes = (
(361,396,l),
(208,474,l),
(97,396,l),
(97,97,l),
(198,31,l),
(321,112,l),
(321,421,l)
);
},
{
attr = {
strokeWidth = 56;
};
closed = 0;
nodes = (
(97,97,l),
(56,123,l)
);
}
);
width = 420;
}
);
unicode = 103;
},
{
glyphname = p;
layers = (
{
layerId = "1001F173-B907-4B82-82ED-47A79DBA7AEA";
associatedMasterId = "6858B54D-AE35-498A-808F-6622AE1D9032";
name = 1;
shapes = (
{
attr = {
strokeWidth = 100;
};
closed = 0;
nodes = (
(41,397,l),
(107,450,l),
(161,396,l),
(160,-139,l)
);
},
{
attr = {
strokeWidth = 100;
};
closed = 0;
nodes = (
(107,113,l),
(295,42,l),
(440,111,l),
(440,400,l),
(308,458,l),
(160,385,l),
(160,90,l)
);
},
{
attr = {
strokeWidth = 100;
};
closed = 0;
nodes = (
(450,396,l),
(499,370,l)
);
}
);
width = 560;
},
{
layerId = "6858B54D-AE35-498A-808F-6622AE1D9032";
shapes = (
{
attr = {
strokeWidth = 120;
};
closed = 0;
nodes = (
(121,396,l),
(120,-139,l)
);
},
{
attr = {
strokeWidth = 120;
};
closed = 0;
nodes = (
(56,133,l),
(253,61,l),
(360,124,l),
(360,390,l),
(246,443,l),
(118,376,l),
(118,105,l)
);
},
{
attr = {
strokeWidth = 120;
};
closed = 0;
nodes = (
(368,387,l),
(417,363,l)
);
},
{
closed = 1;
nodes = (
(55.39,511.065,l),
(120.293,448.8,l),
(14.163,338.173,l),
(-50.74,400.438,l)
);
},
{
closed = 1;
nodes = (
(-8.44,406.61,l),
(74.44,493.39,l),
(163.44,408.39,l),
(80.56,321.61,l)
);
}
);
width = 482;
},
{
layerId = "247F2779-B715-405B-B734-48E41FBA5128";
shapes = (
{
attr = {
strokeWidth = 56;
};
closed = 0;
nodes = (
(23,430,l),
(64,466,l),
(112,419,l),
(112,-139,l)
);
},
{
attr = {
strokeWidth = 56;
};
closed = 0;
nodes = (
(72,107,l),
(225,29,l),
(336,107,l),
(336,406,l),
(235,472,l),
(112,391,l),
(112,82,l)
);
},
{
attr = {
strokeWidth = 56;
};
closed = 0;
nodes = (
(336,406,l),
(377,380,l)
);
}
);
width = 434;
}
);
unicode = 112;
},
{
glyphname = d;
layers = (
{
layerId = "1001F173-B907-4B82-82ED-47A79DBA7AEA";
associatedMasterId = "6858B54D-AE35-498A-808F-6622AE1D9032";
name = 1;
shapes = (
{
attr = {
strokeWidth = 100;
};
closed = 0;
nodes = (
(63,107,l),
(241,32,l),
(366,105,l),
(366,408,l),
(68,579,l),
(118,647,l)
);
},
{
attr = {
strokeWidth = 100;
};
closed = 0;
nodes = (
(381,406,l),
(430,379,l)
);
},
{
attr = {
strokeWidth = 100;
};
closed = 0;
nodes = (
(260,472,l),
(116,393,l),
(116,82,l)
);
}
);
width = 483;
},
{
layerId = "6858B54D-AE35-498A-808F-6622AE1D9032";
shapes = (
{
attr = {
strokeWidth = 120;
};
closed = 0;
nodes = (
(329,408,l),
(41,561,l),
(89,643,l)
);
},
{
attr = {
strokeWidth = 120;
};
closed = 0;
nodes = (
(68,128,l),
(256,63,l),
(363,126,l),
(363,392,l),
(249,445,l),
(121,378,l),
(121,107,l)
);
},
{
attr = {
strokeWidth = 120;
};
closed = 0;
nodes = (
(371,389,l),
(420,365,l)
);
}
);
width = 479;
},
{
layerId = "247F2779-B715-405B-B734-48E41FBA5128";
shapes = (
{
attr = {
strokeWidth = 56;
};
closed = 0;
nodes = (
(57,107,l),
(210,29,l),
(321,107,l),
(321,406,l),
(70,579,l),
(70,601,l),
(132,651,l)
);
},
{
attr = {
strokeWidth = 56;
};
closed = 0;
nodes = (
(321,406,l),
(362,379,l)
);
},
{
attr = {
strokeWidth = 56;
};
closed = 0;
nodes = (
(220,472,l),
(97,391,l),
(97,82,l)
);
}
);
width = 419;
}
);
unicode = 100;
},
{
glyphname = s;
layers = (
{
layerId = "1001F173-B907-4B82-82ED-47A79DBA7AEA";
associatedMasterId = "6858B54D-AE35-498A-808F-6622AE1D9032";
name = 1;
shapes = (
{
attr = {
strokeWidth = 100;
};
closed = 0;
nodes = (
(391,462,l),
(338,411,l),
(223,461,l),
(100,403,l),
(100,276,l),
(368,230,l),
(368,103,l),
(278,35,l),
(97,89,l),
(58,43,l)
);
}
);
width = 440;
},
{
layerId = "6858B54D-AE35-498A-808F-6622AE1D9032";
shapes = (
{
attr = {
strokeWidth = 120;
};
closed = 0;
nodes = (
(418,459,l),
(355,402,l),
(240,448,l),
(117,395,l),
(117,278,l),
(398,236,l),
(398,119,l),
(295,56,l),
(114,106,l),
(61,50,l)
);
}
);
width = 481;
},
{
layerId = "247F2779-B715-405B-B734-48E41FBA5128";
shapes = (
{
attr = {
strokeWidth = 56;
};
closed = 0;
nodes = (
(328,462,l),
(284,411,l),
(185,470,l),
(84,401,l),
(84,277,l),
(307,230,l),
(308,103,l),
(234,35,l),
(84,92,l),
(50,43,l)
);
}
);
width = 393;
}
);
unicode = 115;
},
{
glyphname = x;
layers = (
{
layerId = "1001F173-B907-4B82-82ED-47A79DBA7AEA";
associatedMasterId = "6858B54D-AE35-498A-808F-6622AE1D9032";
name = 1;
shapes = (
{
attr = {
strokeWidth = 100;
};
closed = 0;
nodes = (
(42,424,l),
(42,424,o),
(106,466,o),
(106,466,c),
(412,45,l),
(477,88,l)
);
},
{
attr = {
strokeWidth = 100;
};
closed = 0;
nodes = (
(453,415,l),
(383,458,l),
(236,283,l)
);
},
{
attr = {
strokeWidth = 100;
};
closed = 0;
nodes = (
(65,89,l),
(129,45,l),
(275,219,l)
);
}
);
width = 521;
},
{
layerId = "6858B54D-AE35-498A-808F-6622AE1D9032";
shapes = (
{
attr = {
strokeWidth = 120;
};
closed = 0;
nodes = (
(42,406,l),
(42,406,o),
(105,442,o),
(105,442,c),
(406,75,l),
(470,113,l)
);
},
{
attr = {
strokeWidth = 120;
};
closed = 0;
nodes = (
(446,398,l),
(377,435,l),
(233,283,l)
);
},
{
attr = {
strokeWidth = 120;
};
closed = 0;
nodes = (
(65,113,l),
(128,75,l),
(271,227,l)
);
}
);
width = 521;
},
{
layerId = "247F2779-B715-405B-B734-48E41FBA5128";
shapes = (
{
attr = {
strokeWidth = 56;
};
closed = 0;
nodes = (
(19,424,l),
(54,451,l),
(73,466,l),
(332,38,l),
(394,88,l)
);
},
{
attr = {
strokeWidth = 56;
};
closed = 0;
nodes = (
(374,415,l),
(308,464,l),
(181,283,l)
);
},
{
attr = {
strokeWidth = 56;
};
closed = 0;
nodes = (
(41,89,l),
(101,38,l),
(228,219,l)
);
}
);
width = 420;
}
);
unicode = 120;
},
{
glyphname = CR;
layers = (
{
attr = {
color = 1;
};
layerId = "1001F173-B907-4B82-82ED-47A79DBA7AEA";
associatedMasterId = "6858B54D-AE35-498A-808F-6622AE1D9032";
name = 1;
shapes = (
{
attr = {
fill = 1;
fillColor = (255,74,74,132);
};
closed = 1;
nodes = (
(-10628,-2039,o),
(-10538,-2137,o),
(-10427,-2137,cs),
(-10315,-2137,o),
(-10225,-2039,o),
(-10225,-1920,cs),
(-10225,-1800,o),
(-10315,-1702,o),
(-10427,-1702,cs),
(-10538,-1702,o),
(-10628,-1800,o),
(-10628,-1920,cs)
);
},
{
attr = {
fill = 1;
fillColor = (255,74,74,132);
};
closed = 1;
nodes = (
(-3530,114,o),
(-3440,16,o),
(-3329,16,cs),
(-3217,16,o),
(-3127,114,o),
(-3127,233,cs),
(-3127,353,o),
(-3217,451,o),
(-3329,451,cs),
(-3440,451,o),
(-3530,353,o),
(-3530,233,cs)
);
},
{
attr = {
fill = 1;
fillColor = (255,74,74,132);
};
closed = 1;
nodes = (
(-11441,-2039,o),
(-11351,-2137,o),
(-11240,-2137,cs),
(-11128,-2137,o),
(-11038,-2039,o),
(-11038,-1920,cs),
(-11038,-1800,o),
(-11128,-1702,o),
(-11240,-1702,cs),
(-11351,-1702,o),
(-11441,-1800,o),
(-11441,-1920,cs)
);
},
{
attr = {
fill = 1;
fillColor = (255,74,74,132);
};
closed = 1;
nodes = (
(-3895,-966,o),
(-3805,-1064,o),
(-3694,-1064,cs),
(-3582,-1064,o),
(-3492,-966,o),
(-3492,-847,cs),
(-3492,-727,o),
(-3582,-629,o),
(-3694,-629,cs),
(-3805,-629,o),
(-3895,-727,o),
(-3895,-847,cs)
);
}
